<svg width="14" height="20" viewBox="0 0 14 20" fill="none" xmlns="http://www.w3.org/2000/svg">
<path d="M10.5269 0.0483805C10.5793 0.0759121 10.625 0.114122 10.6609 0.16041C12.7591 2.90799 14 6.31257 14 10.0003C14.0057 13.5452 12.8343 16.9966 10.6609 19.8388C10.6251 19.8852 10.5795 19.9235 10.5271 19.9512C10.4748 19.9788 10.4169 19.9952 10.3575 19.9991C10.2981 20.003 10.2385 19.9944 10.1828 19.9738C10.1271 19.9533 10.0767 19.9213 10.0348 19.88L9.12527 18.9935C9.05318 18.9223 9.00946 18.8285 9.00196 18.7287C8.99447 18.629 9.02369 18.5299 9.08438 18.4492C10.8456 16.0741 11.8848 13.1547 11.8848 10.0003C11.8895 6.96627 10.9087 4.00867 9.08297 1.55138C9.02246 1.47058 8.99348 1.37139 9.00123 1.27164C9.00899 1.17188 9.05296 1.07809 9.12527 1.00709L10.0348 0.12055C10.0766 0.0792066 10.127 0.0471167 10.1826 0.0264632C10.2382 0.00580969 10.2978 -0.0029227 10.3572 0.00085927C10.4166 0.00464124 10.4745 0.0208489 10.5269 0.0483805Z" fill="#1F1F1F"/>
<path d="M6.57887 16.9739C6.52139 16.952 6.46937 16.9169 6.42664 16.8713H6.42523L5.50063 15.9089C5.43221 15.8361 5.38931 15.7414 5.37881 15.6402C5.36831 15.5389 5.39083 15.4369 5.44275 15.3506C6.35606 13.7902 6.88258 11.9595 6.88258 9.99956C6.88511 8.1122 6.38633 6.26084 5.44134 4.65002C5.33688 4.47077 5.35947 4.23863 5.50063 4.0917L6.42664 3.12934C6.46927 3.08362 6.52121 3.04843 6.57863 3.02637C6.63605 3.0043 6.6975 2.99592 6.75845 3.00184C6.81939 3.00776 6.87829 3.02784 6.9308 3.06058C6.98331 3.09333 7.02809 3.13791 7.06186 3.19105C8.33024 5.21611 9.00377 7.58218 8.99998 9.99956C9.00377 12.4169 8.33024 14.783 7.06186 16.8081C7.02821 16.8613 6.98351 16.906 6.93106 16.9389C6.87861 16.9718 6.81974 16.992 6.75879 16.9981C6.69784 17.0041 6.63636 16.9959 6.57887 16.9739Z" fill="#1F1F1F"/>
<path d="M3.4524 12.9866C3.33665 13.2554 3.00069 13.3054 2.80024 13.0967L0.123848 10.311C0.0445442 10.2284 -9.53674e-07 10.1164 -9.53674e-07 9.99956C-9.53674e-07 9.88276 0.0445442 9.77073 0.123848 9.68808L2.80024 6.90238C3.00069 6.69375 3.33665 6.7437 3.4524 7.01258C3.842 7.92498 4.05939 8.93582 4.05939 9.99956C4.05939 11.0618 3.842 12.0741 3.4524 12.9866Z" fill="#1F1F1F"/>
</svg>
