<svg width="14" height="20" viewBox="0 0 14 20" fill="none" xmlns="http://www.w3.org/2000/svg">
<path d="M3.47314 0.0483805C3.42073 0.0759121 3.37503 0.114122 3.33913 0.16041C1.24091 2.90799 2.07253e-05 6.31257 2.07253e-05 10.0003C-0.00568225 13.5452 1.16572 16.9966 3.33913 19.8388C3.37492 19.8852 3.42054 19.9235 3.47289 19.9512C3.52524 19.9788 3.58308 19.9952 3.64249 19.9991C3.7019 20.003 3.76147 19.9944 3.81716 19.9738C3.87285 19.9533 3.92335 19.9213 3.96521 19.88L4.87473 18.9935C4.94682 18.9223 4.99054 18.8285 4.99804 18.7287C5.00553 18.629 4.97631 18.5299 4.91562 18.4492C3.15441 16.0741 2.11517 13.1547 2.11517 10.0003C2.11048 6.96627 3.09129 4.00867 4.91703 1.55138C4.97754 1.47058 5.00652 1.37139 4.99877 1.27164C4.99101 1.17188 4.94704 1.07809 4.87473 1.00709L3.96521 0.12055C3.92344 0.0792066 3.87302 0.0471167 3.81739 0.0264632C3.76176 0.00580969 3.70222 -0.0029227 3.64282 0.00085927C3.58341 0.00464124 3.52554 0.0208489 3.47314 0.0483805Z" fill="#1F1F1F"/>
<path d="M7.42113 16.9739C7.47861 16.952 7.53063 16.9169 7.57336 16.8713H7.57477L8.49937 15.9089C8.56779 15.8361 8.61069 15.7414 8.62119 15.6402C8.63169 15.5389 8.60917 15.4369 8.55725 15.3506C7.64394 13.7902 7.11742 11.9595 7.11742 9.99956C7.11489 8.1122 7.61367 6.26084 8.55866 4.65002C8.66312 4.47077 8.64053 4.23863 8.49937 4.0917L7.57336 3.12934C7.53073 3.08362 7.47879 3.04843 7.42137 3.02637C7.36395 3.0043 7.3025 2.99592 7.24155 3.00184C7.18061 3.00776 7.12171 3.02784 7.0692 3.06058C7.01669 3.09333 6.97191 3.13791 6.93814 3.19105C5.66976 5.21611 4.99623 7.58218 5.00002 9.99956C4.99623 12.4169 5.66976 14.783 6.93814 16.8081C6.97179 16.8613 7.01649 16.906 7.06894 16.9389C7.12139 16.9718 7.18026 16.992 7.24121 16.9981C7.30216 17.0041 7.36364 16.9959 7.42113 16.9739Z" fill="#1F1F1F"/>
<path d="M10.5476 12.9866C10.6634 13.2554 10.9993 13.3054 11.1998 13.0967L13.8762 10.311C13.9555 10.2284 14 10.1164 14 9.99956C14 9.88276 13.9555 9.77073 13.8762 9.68808L11.1998 6.90238C10.9993 6.69375 10.6634 6.7437 10.5476 7.01258C10.158 7.92498 9.94061 8.93582 9.94061 9.99956C9.94061 11.0618 10.158 12.0741 10.5476 12.9866Z" fill="#1F1F1F"/>
</svg>
