<svg width="18" height="19" viewBox="0 0 18 19" fill="none" xmlns="http://www.w3.org/2000/svg">
<path d="M2.33329 12.3334V2.33335H0.666626V0.666687H3.16663C3.38764 0.666687 3.5996 0.754484 3.75588 0.910765C3.91216 1.06704 3.99996 1.27901 3.99996 1.50002V11.5H14.365L16.0316 4.83335H5.66663V3.16669H17.1C17.2266 3.16669 17.3516 3.19557 17.4655 3.25113C17.5793 3.3067 17.679 3.38748 17.7569 3.48734C17.8348 3.58721 17.889 3.70352 17.9152 3.82745C17.9414 3.95137 17.9391 4.07965 17.9083 4.20252L15.825 12.5359C15.7798 12.7161 15.6758 12.876 15.5293 12.9903C15.3828 13.1046 15.2024 13.1667 15.0166 13.1667H3.16663C2.94561 13.1667 2.73365 13.0789 2.57737 12.9226C2.42109 12.7663 2.33329 12.5544 2.33329 12.3334ZM3.99996 18.1667C3.55793 18.1667 3.13401 17.9911 2.82145 17.6785C2.50889 17.366 2.33329 16.942 2.33329 16.5C2.33329 16.058 2.50889 15.6341 2.82145 15.3215C3.13401 15.0089 3.55793 14.8334 3.99996 14.8334C4.44199 14.8334 4.86591 15.0089 5.17847 15.3215C5.49103 15.6341 5.66663 16.058 5.66663 16.5C5.66663 16.942 5.49103 17.366 5.17847 17.6785C4.86591 17.9911 4.44199 18.1667 3.99996 18.1667ZM14 18.1667C13.5579 18.1667 13.134 17.9911 12.8214 17.6785C12.5089 17.366 12.3333 16.942 12.3333 16.5C12.3333 16.058 12.5089 15.6341 12.8214 15.3215C13.134 15.0089 13.5579 14.8334 14 14.8334C14.442 14.8334 14.8659 15.0089 15.1785 15.3215C15.491 15.6341 15.6666 16.058 15.6666 16.5C15.6666 16.942 15.491 17.366 15.1785 17.6785C14.8659 17.9911 14.442 18.1667 14 18.1667Z" fill="#555555"/>
</svg>
