<svg width="18" height="18" viewBox="0 0 18 18" fill="none" xmlns="http://www.w3.org/2000/svg">
<path d="M15.1458 11.5858C15.6865 10.3011 15.811 8.87919 15.5017 7.52003C15.1924 6.16088 14.465 4.93284 13.4216 4.00855C12.3782 3.08427 11.0714 2.51023 9.68486 2.36714C8.29832 2.22406 6.90181 2.51912 5.69166 3.21084L4.86499 1.76334C6.12969 1.04052 7.56182 0.661981 9.01849 0.66549C10.4752 0.669 11.9055 1.05444 13.1667 1.78334C16.9083 3.94334 18.3417 8.56834 16.5975 12.425L17.7158 13.07L14.245 14.915L14.1075 10.9867L15.1458 11.5858ZM2.85416 6.41418C2.31345 7.69892 2.18898 9.12083 2.49826 10.48C2.80753 11.8391 3.535 13.0672 4.57839 13.9915C5.62177 14.9157 6.92859 15.4898 8.31513 15.6329C9.70166 15.776 11.0982 15.4809 12.3083 14.7892L13.135 16.2367C11.8703 16.9595 10.4382 17.338 8.98149 17.3345C7.52481 17.331 6.09452 16.9456 4.83332 16.2167C1.09166 14.0567 -0.341675 9.43167 1.40249 5.57501L0.283325 4.93084L3.75416 3.08584L3.89166 7.01417L2.85333 6.41501L2.85416 6.41418ZM9.83333 10.28H12.3333V11.9467H9.83333V13.6133H8.16666V11.9467H5.66666V10.28H8.16666V9.44667H5.66666V7.78001H7.82166L6.05332 6.01167L7.23333 4.83334L8.99999 6.60084L10.7675 4.83334L11.9467 6.01167L10.1783 7.78001H12.3333V9.44667H9.83333V10.28Z" fill="#555555"/>
</svg>
