<svg width="16" height="18" viewBox="0 0 16 18" fill="none" xmlns="http://www.w3.org/2000/svg">
<path d="M12.1667 0.666748V2.33341H14.6725C15.1292 2.33341 15.5 2.70425 15.5 3.16091V16.5059C15.5 16.9626 15.1292 17.3334 14.6725 17.3334H1.3275C0.870833 17.3334 0.5 16.9626 0.5 16.5059V3.16091C0.5 2.70425 0.870833 2.33341 1.3275 2.33341H3.83333V0.666748H12.1667ZM3.83333 4.00008H2.16667V15.6667H13.8333V4.00008H12.1667V5.66675H3.83333V4.00008ZM5.5 12.3334V14.0001H3.83333V12.3334H5.5ZM5.5 9.83342V11.5001H3.83333V9.83342H5.5ZM5.5 7.33342V9.00008H3.83333V7.33342H5.5ZM10.5 2.33341H5.5V4.00008H10.5V2.33341Z" fill="#555555"/>
</svg>
