<svg width="18" height="18" viewBox="0 0 18 18" fill="none" xmlns="http://www.w3.org/2000/svg">
<path d="M16.8517 11.7982C13.66 10.8373 11.8058 10.2648 11.2867 10.0798C11.7849 9.2155 12.1554 8.28362 12.3867 7.31317H9.66666V6.39317H13V5.8265H9.66666V4.2865H8.38666C8.15332 4.2865 8.12666 4.49317 8.12666 4.49317V5.81984H4.99999V6.3865H8.12666V7.30651H5.56666V7.81984H10.7533C10.5723 8.44903 10.3242 9.05696 10.0133 9.63317C8.83999 9.2465 8.18666 8.97984 6.75332 8.84651C4.03999 8.5865 3.41332 10.0798 3.31332 10.9932C3.16666 12.3865 4.39999 13.5198 6.23999 13.5198C8.07999 13.5198 9.30666 12.6665 10.4733 11.2532C11.4458 11.7182 13.255 12.524 15.9017 13.6715C15.1386 14.7999 14.1104 15.7238 12.907 16.3622C11.7037 17.0007 10.3622 17.3341 8.99999 17.3332C4.39749 17.3332 0.666656 13.6023 0.666656 8.99984C0.666656 4.39734 4.39749 0.666504 8.99999 0.666504C13.6025 0.666504 17.3333 4.39734 17.3333 8.99984C17.3343 9.95333 17.1714 10.8999 16.8517 11.7982ZM6.02666 12.6398C4.07999 12.6398 3.77332 11.4065 3.87332 10.8932C3.97332 10.3798 4.53999 9.71317 5.62666 9.71317C6.87332 9.71317 7.98666 10.0332 9.32666 10.6798C8.37999 11.9132 7.22666 12.6398 6.02666 12.6398Z" fill="#1AA1E6"/>
</svg>
