<svg width="1919" height="969" viewBox="0 0 1919 969" fill="none" xmlns="http://www.w3.org/2000/svg">
<rect width="1919" height="969" fill="#FEDD12"/>
<rect x="275" y="466" width="242" height="10" fill="#F8B13D"/>
<path d="M295.784 427.928V441.368H282.824V457.976H315.944V441.368H300.728V436.664H318.872V432.008H300.728V427.928H295.784ZM310.952 453.368H287.816V446.024H310.952V453.368ZM282.728 459.368C281.048 463.112 279.08 466.28 276.776 468.968L280.904 471.992C283.208 469.016 285.176 465.464 286.904 461.384L282.728 459.368ZM294.584 460.952L289.88 461.912C290.744 464.84 291.512 468.2 292.088 472.04L297.128 470.84C296.36 467.288 295.544 464.024 294.584 460.952ZM304.52 460.28L299.816 461.24C301.16 464.312 302.264 467.912 303.128 471.944L308.12 470.744C307.064 467 305.864 463.496 304.52 460.28ZM314.072 459.128L309.992 461.72C312.824 465.56 315.08 469.064 316.76 472.232L320.984 469.352C319.352 466.472 317.048 463.064 314.072 459.128ZM338.264 455.96V459.848C338.264 464.264 334.328 467.048 326.504 468.152L329.336 472.328C338.36 470.792 343.016 466.856 343.208 460.52V460.232H352.664V466.808C352.664 469.928 354.392 471.512 357.896 471.512H363.8C365.912 471.512 367.304 470.936 367.928 469.88C368.6 468.92 369.128 466.664 369.56 463.016L365.096 461.576C364.712 464.84 364.376 466.616 364.136 466.808C363.848 467.096 363.464 467.24 362.984 467.24H359.192C358.136 467.24 357.608 466.76 357.608 465.896V455.96H338.264ZM327.272 430.952V435.272H368.648V430.952H350.552C349.928 429.512 349.256 428.168 348.584 427.016L343.112 427.88C343.88 428.84 344.552 429.848 345.224 430.952H327.272ZM334.088 437.288V447.32H361.832V437.288H334.088ZM356.888 443.48H339.032V441.224H356.888V443.48ZM368.024 449.336H327.848V458.744H332.84V453.656H363.032V458.552H368.024V449.336ZM375.08 446.888V451.88H418.712V446.888H375.08ZM462.728 430.76L456.728 431.336L457.304 430.76C455.624 429.512 453.56 428.312 451.064 427.064L448.28 429.848C449.624 430.52 450.824 431.144 451.88 431.816L443.96 432.584C443.48 430.952 443.048 429.224 442.664 427.352L437.672 427.832C438.104 429.656 438.584 431.384 439.16 433.064L426.296 434.36L426.872 438.584L440.6 437.24C440.984 438.248 441.368 439.256 441.848 440.216L425.096 442.136L425.768 446.456L444.008 444.344C444.728 445.592 445.544 446.696 446.408 447.752C440.072 449.432 432.488 450.536 423.656 451.112L426.44 455.048C435.32 454.376 443.048 453.032 449.672 451.016C453.176 453.896 457.112 455.336 461.432 455.336C462.872 455.336 464.024 454.856 464.888 453.944C465.752 453.08 466.616 451.112 467.48 448.088L463.208 446.216C462.872 447.944 462.44 449.24 461.864 450.104C461.48 450.536 460.904 450.776 460.232 450.776C458.36 450.728 456.536 450.2 454.808 449.24C457.784 448.04 460.424 446.696 462.824 445.16L459.224 442.712C456.92 444.056 454.184 445.256 451.112 446.36C450.728 445.976 450.392 445.544 450.008 445.112C449.624 444.68 449.288 444.248 448.952 443.768L466.664 441.752L465.944 437.432L446.552 439.688C446.072 438.728 445.688 437.768 445.304 436.76L463.304 434.984L462.728 430.76ZM462.824 456.392H428.84V466.472H423.896V470.84H467.72V466.472H462.824V456.392ZM433.592 466.472V460.76H438.488V466.472H433.592ZM443.24 466.472V460.76H448.232V466.472H443.24ZM452.984 466.472V460.76H458.072V466.472H452.984ZM474.2 436.232C474.104 440.84 473.576 445.208 472.664 449.336L476.84 450.536C477.8 446.12 478.328 441.464 478.424 436.568L474.2 436.232ZM489.752 434.168C488.456 436.184 486.872 438.104 485 440.024V428.168H480.2V446.024C480.104 456.296 477.704 463.736 473 468.392L476.792 471.704C480.056 468.44 482.312 463.976 483.656 458.408C485.096 460.328 486.92 463.016 489.128 466.472L492.056 462.008C489.512 458.84 487.016 455.96 484.52 453.416C484.808 451.112 484.952 448.616 485 446.024V445.352C488.12 442.904 490.664 440.408 492.584 437.864L489.752 434.168ZM491.864 430.088V434.936H503.72V465.512C503.72 466.568 503.096 467.144 501.896 467.144C500.024 467.144 498.008 467 495.896 466.808L497.048 471.608H503.672C506.984 471.608 508.664 469.976 508.664 466.76V434.936H516.872V430.088H491.864ZM529.112 459.752C527.912 459.752 526.952 460.088 526.232 460.808C525.464 461.48 525.08 462.392 525.08 463.544C525.08 464.6 525.416 465.512 526.136 466.232C526.856 466.952 527.72 467.336 528.776 467.336C529.304 467.336 529.688 467.24 529.976 467.144C529.976 468.296 529.592 469.4 528.728 470.552C527.816 471.608 526.712 472.376 525.416 472.856V476.024C527.912 475.304 529.928 474.008 531.416 472.136C532.856 470.216 533.624 468.008 533.624 465.464C533.624 463.784 533.192 462.392 532.376 461.336C531.512 460.28 530.408 459.752 529.112 459.752ZM298.088 519.912H306.104C305.672 521.832 305.192 523.56 304.616 525C302.648 530.136 299.288 534.552 294.488 538.2L297.704 542.184C302.984 537.864 306.728 532.824 308.984 527.016V537.288C308.984 538.44 309.272 539.4 309.944 540.168C310.472 540.888 311.288 541.272 312.44 541.272H315.992C317.816 541.224 319.016 540.792 319.688 539.976C320.36 539.112 320.888 536.232 321.32 531.336L317.048 529.848C316.904 533.88 316.664 536.088 316.28 536.472C315.992 536.808 315.56 537 315.08 537H313.976C313.592 537 313.448 536.76 313.448 536.376V522.744H310.28C310.472 521.88 310.712 520.92 310.904 519.912H320.024V515.304H311.624C312.008 511.944 312.344 508.056 312.536 503.688H319.112V499.08H297.8V503.688H307.88C307.688 508.056 307.352 511.944 306.872 515.304H303.08C303.416 512.712 303.704 509.784 303.992 506.472L299.624 505.992C299.288 510.024 298.76 514.68 298.088 519.912ZM283.64 512.904H291.368V518.088H283.64V512.904ZM291.368 508.44H283.64V503.592H291.368V508.44ZM278.888 540.552C284.264 538.536 289.112 536.184 293.336 533.592C293.768 534.36 294.2 535.176 294.584 535.944L298.28 533.352C296.936 530.616 294.968 527.4 292.424 523.752L288.632 526.152C289.496 527.4 290.312 528.6 291.08 529.848C288.872 531.192 286.376 532.536 283.64 533.832V522.648H295.976V499.08H278.84V534.12C278.84 534.984 278.312 535.656 277.304 536.04L278.888 540.552ZM333.416 525.96H342.824V529.08H333.416V525.96ZM342.824 521.832H333.416V518.52H342.824V521.832ZM333.416 533.208H342.824V535.416C342.824 536.664 342.248 537.336 341.192 537.336L337.832 537.096L339.08 541.752H342.776C346.04 541.752 347.672 539.976 347.672 536.472V514.2H328.568V542.088H333.416V533.208ZM363.896 519C365.672 519 367.016 518.616 367.88 517.896C368.744 517.128 369.368 514.68 369.752 510.648L365.096 509.112C365 511.704 364.76 513.24 364.424 513.768C364.088 514.248 363.608 514.488 362.936 514.488H357.464C356.312 514.488 355.784 513.672 355.784 512.136V507.768C360.824 507 365.288 506.184 369.224 505.32L367.592 500.904C364.52 501.72 360.584 502.488 355.784 503.256V497.784H350.84V513.144C350.84 517.032 352.568 519 356.072 519H363.896ZM355.784 530.136C360.584 529.656 365.048 528.888 369.224 527.784L367.592 523.32C364.136 524.376 360.2 525.144 355.784 525.624V520.584H350.84V536.712C350.84 539.736 352.568 541.272 356.024 541.272H363.896C365.672 541.272 366.968 540.888 367.832 540.168C368.696 539.4 369.368 537 369.752 532.92L365.192 531.48C365.048 534.072 364.808 535.608 364.424 536.136C364.136 536.616 363.608 536.856 362.936 536.856H357.416C356.312 536.856 355.784 536.424 355.784 535.608V530.136ZM344.264 500.904L340.424 503.352C341.288 504.648 342.152 505.896 342.92 507.144C339.368 507.528 336.008 507.864 332.84 508.056C335.288 505.704 337.448 502.68 339.368 498.936L334.568 497.496C333.128 500.472 331.016 503.688 328.136 507.048C327.512 507.624 326.744 508.008 325.88 508.296L327.224 512.472C334.088 512.088 340.04 511.464 345.032 510.696C345.56 511.704 346.088 512.712 346.568 513.672L350.696 510.744C349.16 507.96 347.048 504.696 344.264 500.904ZM376.952 499.08V528.936H391.928V499.08H376.952ZM387.176 524.472H381.848V516.216H387.176V524.472ZM381.848 511.704V503.592H387.176V511.704H381.848ZM394.856 515.352V528.936H415.784V515.352H394.856ZM410.888 524.568H399.752V519.768H410.888V524.568ZM400.28 503.784C399.416 506.952 396.872 509.208 392.552 510.6L395.192 514.728C400.952 512.424 404.264 508.776 405.128 503.784H411.944C411.848 505.992 411.704 507.336 411.416 507.864C411.176 509.016 410.648 509.64 409.784 509.688C408.536 509.688 407 509.592 405.272 509.448L406.712 513.768C408.056 513.912 409.256 514.008 410.312 514.008C413 513.96 414.728 512.856 415.592 510.696C416.36 509.16 416.84 505.272 417.032 499.08H394.28V503.784H400.28ZM379.4 530.376C378.344 534.504 377.048 537.96 375.608 540.648L380.168 542.328C381.656 539.256 382.904 535.656 383.864 531.576L379.4 530.376ZM392.456 531.24L387.848 532.248C388.616 535.08 389.336 538.344 389.912 542.088L394.76 540.888C394.088 537.432 393.32 534.216 392.456 531.24ZM402.632 530.76L397.976 531.768C399.224 534.744 400.28 538.152 401.144 541.992L405.992 540.792C405.032 537.192 403.88 533.832 402.632 530.76ZM412.52 529.752L408.632 532.2C411.128 535.848 413.096 539.208 414.536 542.184L418.52 539.352C417.128 536.616 415.112 533.4 412.52 529.752ZM436.184 525.96V529.848C436.184 534.264 432.248 537.048 424.424 538.152L427.256 542.328C436.28 540.792 440.936 536.856 441.128 530.52V530.232H450.584V536.808C450.584 539.928 452.312 541.512 455.816 541.512H461.72C463.832 541.512 465.224 540.936 465.848 539.88C466.52 538.92 467.048 536.664 467.48 533.016L463.016 531.576C462.632 534.84 462.296 536.616 462.056 536.808C461.768 537.096 461.384 537.24 460.904 537.24H457.112C456.056 537.24 455.528 536.76 455.528 535.896V525.96H436.184ZM425.192 500.952V505.272H466.568V500.952H448.472C447.848 499.512 447.176 498.168 446.504 497.016L441.032 497.88C441.8 498.84 442.472 499.848 443.144 500.952H425.192ZM432.008 507.288V517.32H459.752V507.288H432.008ZM454.808 513.48H436.952V511.224H454.808V513.48ZM465.944 519.336H425.768V528.744H430.76V523.656H460.952V528.552H465.944V519.336ZM511.496 502.824H493.88C494.696 501.384 495.368 499.848 495.848 498.168L490.76 497.448C490.28 499.272 489.512 501.096 488.552 502.824H478.184V541.992H483.272V539.4H506.408V541.992H511.496V502.824ZM483.272 534.648V528.36H506.408V534.648H483.272ZM483.272 523.752V517.848H506.408V523.752H483.272ZM483.272 513.24V507.624H506.408V513.24H483.272ZM565.736 527.976L560.84 526.392C560.648 529.944 560.312 532.344 559.832 533.688C559.352 534.984 558.104 535.656 556.088 535.656H533.96C531.752 535.56 530.6 534.6 530.6 532.776V520.2H560.408V499.704H524.936V504.504H555.368V515.4H525.512V534.744C525.512 538.536 527.528 540.456 531.656 540.456H556.904C560.264 540.456 562.376 539.688 563.336 538.152C564.344 536.52 565.16 533.16 565.736 527.976ZM578.072 529.752C576.872 529.752 575.912 530.088 575.192 530.808C574.424 531.48 574.04 532.392 574.04 533.544C574.04 534.6 574.376 535.512 575.096 536.232C575.816 536.952 576.68 537.336 577.736 537.336C578.264 537.336 578.648 537.24 578.936 537.144C578.936 538.296 578.552 539.4 577.688 540.552C576.776 541.608 575.672 542.376 574.376 542.856V546.024C576.872 545.304 578.888 544.008 580.376 542.136C581.816 540.216 582.584 538.008 582.584 535.464C582.584 533.784 582.152 532.392 581.336 531.336C580.472 530.28 579.368 529.752 578.072 529.752ZM640.184 497.352V509.16L631.448 511.08V501.192H626.504V512.184L619.448 513.768V518.568L626.504 517.08V533.208C626.504 538.056 628.808 540.504 633.416 540.504H655.88C658.904 540.504 660.968 539.976 662.072 538.92C663.176 537.816 663.944 534.744 664.328 529.656L659.72 528.072C659.528 531.864 659.096 534.12 658.424 534.792C657.704 535.368 656.552 535.704 655.016 535.704H634.616C632.504 535.704 631.448 534.648 631.448 532.536V516.024L640.184 514.152V530.424H645.128V513.096L654.728 511.08C654.68 517.128 654.584 520.632 654.392 521.592C654.2 523.032 653.672 523.8 652.856 523.8C651.608 523.8 650.12 523.752 648.488 523.704L649.832 528.312H651.944C655.88 528.312 658.136 527.016 658.664 524.472C659.192 522.168 659.48 515.592 659.48 504.84L645.128 508.056V497.352H640.184ZM676.136 525.96H685.544V529.08H676.136V525.96ZM685.544 521.832H676.136V518.52H685.544V521.832ZM676.136 533.208H685.544V535.416C685.544 536.664 684.968 537.336 683.912 537.336L680.552 537.096L681.8 541.752H685.496C688.76 541.752 690.392 539.976 690.392 536.472V514.2H671.288V542.088H676.136V533.208ZM706.616 519C708.392 519 709.736 518.616 710.6 517.896C711.464 517.128 712.088 514.68 712.472 510.648L707.816 509.112C707.72 511.704 707.48 513.24 707.144 513.768C706.808 514.248 706.328 514.488 705.656 514.488H700.184C699.032 514.488 698.504 513.672 698.504 512.136V507.768C703.544 507 708.008 506.184 711.944 505.32L710.312 500.904C707.24 501.72 703.304 502.488 698.504 503.256V497.784H693.56V513.144C693.56 517.032 695.288 519 698.792 519H706.616ZM698.504 530.136C703.304 529.656 707.768 528.888 711.944 527.784L710.312 523.32C706.856 524.376 702.92 525.144 698.504 525.624V520.584H693.56V536.712C693.56 539.736 695.288 541.272 698.744 541.272H706.616C708.392 541.272 709.688 540.888 710.552 540.168C711.416 539.4 712.088 537 712.472 532.92L707.912 531.48C707.768 534.072 707.528 535.608 707.144 536.136C706.856 536.616 706.328 536.856 705.656 536.856H700.136C699.032 536.856 698.504 536.424 698.504 535.608V530.136ZM686.984 500.904L683.144 503.352C684.008 504.648 684.872 505.896 685.64 507.144C682.088 507.528 678.728 507.864 675.56 508.056C678.008 505.704 680.168 502.68 682.088 498.936L677.288 497.496C675.848 500.472 673.736 503.688 670.856 507.048C670.232 507.624 669.464 508.008 668.6 508.296L669.944 512.472C676.808 512.088 682.76 511.464 687.752 510.696C688.28 511.704 688.808 512.712 689.288 513.672L693.416 510.744C691.88 507.96 689.768 504.696 686.984 500.904ZM719.672 499.08V528.936H734.648V499.08H719.672ZM729.896 524.472H724.568V516.216H729.896V524.472ZM724.568 511.704V503.592H729.896V511.704H724.568ZM737.576 515.352V528.936H758.504V515.352H737.576ZM753.608 524.568H742.472V519.768H753.608V524.568ZM743 503.784C742.136 506.952 739.592 509.208 735.272 510.6L737.912 514.728C743.672 512.424 746.984 508.776 747.848 503.784H754.664C754.568 505.992 754.424 507.336 754.136 507.864C753.896 509.016 753.368 509.64 752.504 509.688C751.256 509.688 749.72 509.592 747.992 509.448L749.432 513.768C750.776 513.912 751.976 514.008 753.032 514.008C755.72 513.96 757.448 512.856 758.312 510.696C759.08 509.16 759.56 505.272 759.752 499.08H737V503.784H743ZM722.12 530.376C721.064 534.504 719.768 537.96 718.328 540.648L722.888 542.328C724.376 539.256 725.624 535.656 726.584 531.576L722.12 530.376ZM735.176 531.24L730.568 532.248C731.336 535.08 732.056 538.344 732.632 542.088L737.48 540.888C736.808 537.432 736.04 534.216 735.176 531.24ZM745.352 530.76L740.696 531.768C741.944 534.744 743 538.152 743.864 541.992L748.712 540.792C747.752 537.192 746.6 533.832 745.352 530.76ZM755.24 529.752L751.352 532.2C753.848 535.848 755.816 539.208 757.256 542.184L761.24 539.352C759.848 536.616 757.832 533.4 755.24 529.752ZM778.904 525.96V529.848C778.904 534.264 774.968 537.048 767.144 538.152L769.976 542.328C779 540.792 783.656 536.856 783.848 530.52V530.232H793.304V536.808C793.304 539.928 795.032 541.512 798.536 541.512H804.44C806.552 541.512 807.944 540.936 808.568 539.88C809.24 538.92 809.768 536.664 810.2 533.016L805.736 531.576C805.352 534.84 805.016 536.616 804.776 536.808C804.488 537.096 804.104 537.24 803.624 537.24H799.832C798.776 537.24 798.248 536.76 798.248 535.896V525.96H778.904ZM767.912 500.952V505.272H809.288V500.952H791.192C790.568 499.512 789.896 498.168 789.224 497.016L783.752 497.88C784.52 498.84 785.192 499.848 785.864 500.952H767.912ZM774.728 507.288V517.32H802.472V507.288H774.728ZM797.528 513.48H779.672V511.224H797.528V513.48ZM808.664 519.336H768.488V528.744H773.48V523.656H803.672V528.552H808.664V519.336ZM825.032 515.544C824.936 517.128 824.792 518.664 824.696 520.104H816.2V524.76H823.976C823.592 526.44 823.16 527.88 822.632 529.08C821.192 532.536 818.648 535.464 815.096 537.912L818.312 541.944C822.44 538.872 825.368 535.32 827.144 531.192C827.816 529.464 828.44 527.352 828.92 524.76H834.824C834.728 529.944 834.584 532.968 834.344 533.832C834.008 535.944 832.856 537 830.888 537C829.832 537 828.536 536.904 827.096 536.808L828.296 541.176C829.88 541.32 831.032 541.416 831.704 541.416C836.072 541.416 838.52 539.592 839 536.04C839.48 534.024 839.72 528.696 839.72 520.104H829.544C829.688 518.664 829.832 517.176 829.928 515.544H839.048V499.08H817.784V515.544H825.032ZM843.368 501.816V531.336H848.264V501.816H843.368ZM853.016 541.56C856.472 541.56 858.248 539.688 858.248 536.04V497.736H853.256V534.744C853.256 536.28 852.584 537.096 851.288 537.096C849.32 537.096 847.208 537 845 536.808L846.104 541.56H853.016ZM834.296 511.032H822.536V503.592H834.296V511.032ZM888.872 497.64H883.784C883.784 499.464 883.736 501.96 883.736 505.176C883.352 518.952 876.776 529.704 863.912 537.384L866.984 541.896C876.968 535.464 883.544 527.352 886.712 517.56C890.408 527.688 896.744 535.752 905.72 541.8L909.08 537.384C898.184 530.712 891.32 521.064 888.536 508.44C888.728 505.464 888.872 501.864 888.872 497.64ZM923.48 529.704C921.608 529.704 920.024 530.28 918.728 531.528C917.384 532.776 916.76 534.312 916.76 536.184C916.76 538.008 917.384 539.592 918.728 540.84C920.024 542.04 921.608 542.664 923.48 542.664C925.304 542.664 926.888 542.04 928.232 540.792C929.528 539.544 930.2 538.008 930.2 536.184C930.2 534.36 929.528 532.824 928.232 531.576C926.888 530.328 925.304 529.704 923.48 529.704ZM923.48 533.064C924.344 533.064 925.064 533.352 925.736 533.976C926.36 534.552 926.696 535.32 926.696 536.184C926.696 537.048 926.36 537.768 925.736 538.392C925.064 538.968 924.344 539.304 923.48 539.304C922.616 539.304 921.848 538.968 921.224 538.392C920.552 537.768 920.264 537.048 920.264 536.184C920.264 535.32 920.552 534.552 921.224 533.976C921.848 533.352 922.616 533.064 923.48 533.064Z" fill="black"/>
<path d="M159.116 89.9743C159.116 106.069 146.069 119.116 129.974 119.116C113.88 119.116 100.833 106.069 100.833 89.9743C100.833 73.8798 113.88 60.8326 129.974 60.8326C146.069 60.8326 159.116 73.8798 159.116 89.9743Z" fill="#FEDD12" stroke="black" stroke-width="1.66524"/>
<path d="M129.857 119.115C125.176 119.115 120.757 117.997 116.846 116.01V95.1243C116.846 95.0119 116.893 94.9047 116.977 94.8293L116.418 94.2116L116.977 94.8293L124.692 87.8556L132.07 94.8309C132.149 94.906 132.194 95.0105 132.194 95.1198V119.022C131.424 119.084 130.644 119.115 129.857 119.115Z" fill="white" stroke="black" stroke-width="1.66524"/>
<path d="M129.974 119.116C125.566 119.116 121.389 118.138 117.645 116.387L132.235 106.031V119.029C131.489 119.087 130.735 119.116 129.974 119.116Z" fill="#F78F77" stroke="black" stroke-width="1.66524"/>
<path d="M132.223 105.252H154.806C150.168 112.965 141.452 118.393 132.223 119.039V105.252Z" fill="#F8B13D" stroke="black" stroke-width="1.66524"/>
<path d="M123.519 95.929C123.519 95.2104 124.101 94.6279 124.82 94.6279V94.6279C125.538 94.6279 126.121 95.2104 126.121 95.929V101.133H123.519V95.929Z" fill="black"/>
<path d="M175.936 90.5115V88.2605C175.936 85.8903 176.559 84.0401 177.804 82.71C179.049 81.3799 180.772 80.7148 182.973 80.7148C185.173 80.7148 186.938 81.3799 188.269 82.71C189.207 83.6479 189.651 85.1116 189.651 86.9874H186.092C186.092 84.9581 185.267 84.0005 183.1 84.0005C182.452 84.0005 181.898 84.0145 181.437 84.2703C180.994 84.509 180.661 84.7904 180.439 85.1144C180.218 85.4384 179.87 85.9158 179.751 86.5468C179.631 87.1777 179.563 87.7063 179.546 88.1326C179.529 88.559 179.521 89.1302 179.521 89.8464C179.521 90.5626 179.521 91.0486 179.521 91.3044C179.538 91.5431 179.486 91.9505 179.521 92.5132C179.521 93.4093 179.647 93.5976 179.969 94.3053C180.715 95.5001 181.672 95.9482 182.806 95.9482C184.29 95.9482 186.092 94.7534 186.092 92.8119V91.7653H183.891V88.7982H189.053C189.383 88.7982 189.651 89.0656 189.651 89.3955V94.744C189.651 95.2255 189.566 95.7091 189.328 96.1281C188.805 97.0525 188.076 97.7722 187.143 98.2874C186 98.9183 184.704 99.2338 183.254 99.2338C180.678 99.2338 178.81 98.5176 177.651 97.0852C176.508 95.6357 175.936 93.4445 175.936 90.5115Z" fill="#303030"/>
<path d="M204.998 99.2338H199.44C197.398 99.2338 195.918 98.8452 195 98.0681C194.098 97.274 193.647 95.99 193.647 94.2161V80.7148L197.194 80.7148V94.0729C197.194 94.7824 197.356 95.2724 197.679 95.5427C198.002 95.813 198.589 95.9482 199.44 95.9482H204.998V99.2338Z" fill="#303030"/>
<path d="M222.734 89.1302V90.5115C222.734 93.5638 222.184 95.7807 221.084 97.1619C219.999 98.5431 218.252 99.2338 215.84 99.2338C213.429 99.2338 211.681 98.5431 210.597 97.1619C209.529 95.7807 208.995 93.5383 208.995 90.4347V89.1046C208.995 86.2739 209.537 84.168 210.621 82.7867C211.722 81.4055 213.453 80.7148 215.816 80.7148C218.195 80.7148 219.943 81.414 221.059 82.8123C222.176 84.2106 222.734 86.3166 222.734 89.1302ZM219.36 90.4347V89.4883C219.36 87.8513 219.166 86.5468 218.778 85.5748C218.324 84.4493 217.353 83.8866 215.865 83.8866C214.359 83.8866 213.38 84.4493 212.927 85.5748C212.555 86.4956 212.369 87.8001 212.369 89.4883V90.4347C212.369 92.6345 212.66 94.118 213.243 94.8854C213.469 95.2094 213.801 95.4908 214.238 95.7295C214.691 95.9512 215.225 96.062 215.84 96.062C216.471 96.062 217.005 95.9512 217.442 95.7295C217.879 95.5078 218.219 95.235 218.462 94.911C218.705 94.587 218.891 94.1607 219.02 93.6321C219.247 92.7965 219.36 91.7307 219.36 90.4347Z" fill="#303030"/>
<path fill-rule="evenodd" clip-rule="evenodd" d="M230.316 80.7148H226.731L231.423 98.3463C231.563 98.8696 232.037 99.2338 232.578 99.2338H235.244L235.208 99.1286L230.316 80.7148ZM239.127 80.7148L237.484 87.1367L239.276 93.708L242.86 80.7148H239.127ZM232.705 86.2406L235.692 84.0004L238.828 95.5L238.028 98.3412C237.883 98.8563 237.413 99.2121 236.878 99.2121H236.14L232.705 86.2406Z" fill="#303030"/>
<path d="M260 99.2338H252.274C250.277 99.2338 248.871 98.8874 248.056 98.1948C247.257 97.4852 246.858 96.2434 246.858 94.4695V80.7148H260V84.0005H250.442V88.5649H258.379L258.129 91.7073H250.442V94.2161C250.442 94.9257 250.6 95.2724 250.916 95.5427C251.232 95.813 251.807 95.9482 252.639 95.9482H260V99.2338Z" fill="#303030"/>
<line x1="290.5" y1="80.4741" x2="290.5" y2="99.4741" stroke="black"/>
<path d="M324.86 88.0741H339V86.0341H324.86V83.7941C329.7 83.6741 334.06 83.2541 337.94 82.5341L336.92 80.6541C332.8 81.4541 328.08 81.8741 322.8 81.9141V88.2141C322.7 92.1341 321.98 95.1941 320.66 97.3941L322.22 99.0341C323.86 96.3541 324.74 92.7341 324.86 88.2141V88.0741ZM337.54 90.2541H326.24V99.0741H328.34V98.3141H335.44V99.0741H337.54V90.2541ZM328.34 96.2741V92.2541H335.44V96.2741H328.34ZM357.3 90.5141H343.5V99.0941H345.62V98.3341H355.18V99.0941H357.3V90.5141ZM345.62 96.3341V92.5141H355.18V96.3341H345.62ZM342.24 88.7341C347.34 88.5541 351.98 88.2741 356.14 87.8941C356.6 88.6541 357.06 89.4341 357.5 90.2541L359.54 89.2541C358.1 86.8341 356.6 84.6341 355 82.6341L353.1 83.5341C353.72 84.3141 354.34 85.1541 354.94 86.0341C351.86 86.3141 348.7 86.5341 345.46 86.6941C347.1 85.1741 348.68 83.3341 350.22 81.2141L348.06 80.4541C345.34 84.4341 343.26 86.5341 341.86 86.7541L342.24 88.7341ZM376.68 88.3941H364.94V99.0541H367.04V98.3941H375.56V99.0741H377.62V93.6341H367.04V92.6941H376.68V88.3941ZM367.04 96.5541V95.2741H375.56V96.5541H367.04ZM367.04 91.0541V90.0541H374.66V91.0541H367.04ZM379.44 85.8541H371.92C371.8 85.4941 371.66 85.1541 371.54 84.8341L372.46 85.4141C372.86 84.8541 373.24 84.2541 373.58 83.6141H374.48C374.9 84.2141 375.26 84.8341 375.58 85.4741L377.42 84.7741C377.22 84.4141 376.98 84.0141 376.7 83.6141H379.86V81.7941H374.36C374.46 81.5141 374.56 81.2141 374.66 80.9141L372.68 80.4741C372.28 81.8341 371.62 83.1141 370.7 84.3141L371.1 84.5741L369.34 84.8741C369.5 85.1741 369.66 85.4941 369.82 85.8541H362.16V89.7741H364.2V87.6141H377.4V89.7741H379.44V85.8541ZM364.98 83.6141H365.72C366.16 84.2741 366.54 84.9541 366.86 85.6741L368.76 84.9341C368.54 84.5141 368.26 84.0741 367.94 83.6141H370.78V81.7941H365.86C365.98 81.4941 366.08 81.1941 366.2 80.8941L364.18 80.4541C363.72 81.8541 362.92 83.1941 361.76 84.4341L363.58 85.5941C364.1 84.9941 364.56 84.3341 364.98 83.6141ZM389.28 81.1741V90.8741H393.38V92.7141H389.06V94.6541H393.38V96.5141H388.3V98.5341H400.44V96.5141H395.46V94.6541H399.76V92.7141H395.46V90.8741H399.52V81.1741H389.28ZM397.52 89.0341H395.46V86.9141H397.52V89.0341ZM393.38 89.0341H391.28V86.9141H393.38V89.0341ZM391.28 85.1341V83.0141H393.38V85.1341H391.28ZM395.46 83.0141H397.52V85.1341H395.46V83.0141ZM382.42 87.7341V89.7341H384.32V94.1341C383.54 94.3341 382.74 94.4941 381.92 94.6341L382.44 96.6341C384.52 96.1341 386.48 95.5341 388.32 94.8141V92.7941C387.7 93.0541 387.08 93.2941 386.44 93.5141V89.7341H388.38V87.7341H386.44V83.6541H388.62V81.6741H382.12V83.6541H384.32V87.7341H382.42ZM410.92 98.9941C412.22 98.9941 412.88 98.3141 412.88 96.9741V92.0541C414.4 91.9341 415.8 91.8141 417.08 91.6741C417.52 92.3341 417.94 92.9741 418.3 93.6141L419.96 92.4741C419.08 91.0141 417.8 89.3141 416.14 87.3741L414.6 88.3341C415.04 88.8941 415.48 89.4541 415.9 90.0141C413.94 90.2541 411.64 90.4541 409.04 90.6341C411.32 89.3141 414.02 87.3141 417.12 84.6541L415.2 83.7141C414.32 84.5141 413.48 85.2541 412.66 85.9341C411.34 86.0341 410 86.1341 408.68 86.2141C409.74 85.4541 410.76 84.4941 411.72 83.3741C414.64 83.1741 417.16 82.8541 419.3 82.4141L418.28 80.6741C414.28 81.4141 409.42 81.7941 403.7 81.7941L404.3 83.5941C405.98 83.5941 407.58 83.5541 409.14 83.5141C408.1 84.6741 407.24 85.4141 406.54 85.7541C406.1 85.9541 405.64 86.0741 405.14 86.1341L405.56 87.9541C407.28 87.8541 408.94 87.7541 410.5 87.6341C408.82 88.8541 407.28 89.7541 405.9 90.3541C405.36 90.5541 404.76 90.6741 404.1 90.7341L404.68 92.5541C406.88 92.4541 408.9 92.3341 410.78 92.2141V96.4541C410.78 96.8741 410.58 97.0941 410.2 97.0941C409.54 97.0941 408.86 97.0341 408.16 96.9541L408.64 98.9941H410.92ZM415.56 92.8941L414.18 94.2341C416.28 95.8141 417.9 97.2941 419.04 98.6541L420.52 97.1741C419.18 95.7541 417.52 94.3341 415.56 92.8941ZM407.42 93.0341C406.1 94.4941 404.5 95.7741 402.58 96.8741L403.88 98.5741C405.88 97.3741 407.54 95.9541 408.88 94.3341L407.42 93.0341ZM429.64 94.0541C427.8 94.9341 425.64 95.6541 423.18 96.1941L423.44 98.2741C425.76 97.7141 427.82 96.9541 429.64 96.0341V94.0541ZM426.04 80.4541C425.36 82.5741 424.56 84.5141 423.64 86.2741C423.36 86.6741 423.06 86.9341 422.74 87.0741L423.26 88.9941C424.18 88.8541 425.1 88.7141 425.98 88.5941C425.1 90.1141 424.38 91.1741 423.82 91.7741C423.58 92.0141 423.26 92.2141 422.88 92.3741L423.44 94.2941C425.38 93.9941 427.44 93.3941 429.64 92.4741V90.5541C428.42 91.0941 427.22 91.5341 426.04 91.8541C427.08 90.4341 428.38 88.2541 429.94 85.3141L428.08 84.5941C427.7 85.3341 427.34 86.0341 427.02 86.6741C426.42 86.7741 425.82 86.8541 425.22 86.9141C426.18 85.4341 427.12 83.5541 428.04 81.2341L426.04 80.4541ZM430.2 89.6341C433.1 89.4141 435.78 89.1141 438.24 88.7541C438.52 89.1941 438.78 89.6541 439.02 90.0941L440.64 88.9541C439.94 87.6941 438.94 86.2141 437.64 84.5141L436.04 85.5141L437.12 87.0141C435.64 87.2541 434.14 87.4541 432.62 87.5941C433.18 86.8341 433.82 85.7941 434.54 84.4341H440.62V82.4541H436.28C436.04 81.6941 435.8 80.9941 435.56 80.3941L433.44 80.7541C433.72 81.2741 433.96 81.8541 434.18 82.4541H429.38V84.4341H432.36C431.46 86.1341 430.72 87.1941 430.16 87.6341C430.08 87.6741 429.94 87.7341 429.76 87.7941L430.2 89.6341ZM431.62 90.1541C431.54 92.3341 431.28 93.8941 430.84 94.8341C430.38 95.7941 429.6 96.6341 428.48 97.3541L429.82 99.0341C431.18 98.1141 432.14 97.0141 432.72 95.7541C433.24 94.5741 433.54 92.7141 433.66 90.1541H431.62ZM439.02 98.6941C439.98 98.6141 440.62 98.3941 440.9 97.9941C441.18 97.5541 441.34 96.3941 441.34 94.4741L439.56 93.8341C439.56 94.7541 439.52 95.4941 439.48 96.0341C439.44 96.5341 439.26 96.8141 438.92 96.8541H437.86C437.64 96.7941 437.54 96.6141 437.54 96.3141V89.9141H435.56V96.7341C435.56 98.0341 436.3 98.6941 437.8 98.6941H439.02Z" fill="black"/>
</svg>
