<svg width="18" height="16" viewBox="0 0 18 16" fill="none" xmlns="http://www.w3.org/2000/svg">
<path d="M6.72499 10.2242C6.59755 10.2892 6.44983 10.3022 6.31301 10.2603C6.17618 10.2185 6.06096 10.1252 5.99166 10L5.95582 9.92083L4.44082 6.58917C4.43461 6.54913 4.43461 6.50837 4.44082 6.46833C4.4407 6.43191 4.44788 6.39583 4.46194 6.36223C4.476 6.32863 4.49665 6.29819 4.52268 6.27271C4.54871 6.24722 4.57958 6.22722 4.61347 6.21387C4.64736 6.20052 4.68358 6.19411 4.71999 6.195C4.77918 6.19375 4.83695 6.2132 4.88332 6.25L6.69999 7.5225C6.83468 7.61261 6.99294 7.66102 7.15499 7.66166C7.25268 7.66219 7.34951 7.64351 7.43999 7.60667L15.8125 3.85667C14.9538 2.90827 13.9016 2.15519 12.7269 1.64829C11.5522 1.14139 10.2824 0.892464 9.00332 0.918332C4.39832 0.918332 0.666656 4.02666 0.666656 7.89166C0.693638 8.93284 0.969467 9.95243 1.47108 10.8652C1.9727 11.778 2.68553 12.5574 3.54999 13.1383C3.64197 13.2062 3.71062 13.3009 3.74645 13.4094C3.78228 13.5179 3.78351 13.6349 3.74999 13.7442L3.37499 15.1617C3.35219 15.2262 3.3379 15.2934 3.33249 15.3617C3.33169 15.3984 3.33835 15.435 3.35206 15.4691C3.36576 15.5032 3.38623 15.5342 3.41224 15.5602C3.43825 15.5863 3.46925 15.6067 3.50338 15.6204C3.5375 15.6341 3.57405 15.6408 3.61082 15.64C3.66674 15.637 3.72108 15.6204 3.76916 15.5917L5.58582 14.5375C5.71916 14.4558 5.87166 14.4117 6.02832 14.4108C6.11082 14.4108 6.19249 14.4225 6.26999 14.4467C7.15582 14.6967 8.07082 14.8233 8.99082 14.8217C13.595 14.8217 17.3325 11.7142 17.3325 7.88C17.3412 6.73646 17.0241 5.61409 16.4183 4.64417L6.79166 10.1875L6.72499 10.2242Z" fill="#2CAA3F"/>
</svg>
